<svg width="20" height="20" fill="none" viewBox="0 0 20 20" xmlns="http://www.w3.org/2000/svg"><circle cx="10" cy="10" r="10" fill="#fff" class="backdrop"/><path d="M16.437 11.027c-.749.574-1.634 1.163-1.955 1.299-.55.257-.595.257-.993-.046-.244-.18-.534-.633-.703-1.116a14.35 14.35 0 00-.335-.86c-.016-.03-.474.286-1.008.709-1.222.981-2.139 1.434-2.657 1.313-.23-.06-.658-.468-1.085-1.072l-.717-.966-1.65 1.54c-.917.845-2.062 1.887-2.536 2.325-.473.422-.84.8-.794.845.046.03 1.008-.347 2.138-.83 1.13-.498 2.2-.936 2.383-.981.244-.06.443.106.886.694.947 1.253 1.847 1.238 3.283-.06.489-.453.932-.83.962-.83.047 0 .153.27.26.588.183.603.779 1.223 1.191 1.223.627 0 1.42-.634 2.978-2.4 2.46-2.778 2.52-3.02.352-1.375z" fill="currentColor"/><path d="M16.535 6.027c-.702.574-1.533 1.163-1.832 1.299-.517.257-.56.257-.932-.045-.23-.182-.501-.634-.658-1.117a15.16 15.16 0 00-.316-.86c-.014-.03-.444.286-.945.709-1.146.981-2.005 1.434-2.49 1.313-.216-.06-.617-.468-1.018-1.072l-.672-.966-1.547 1.54c-.859.845-1.933 1.887-2.377 2.325-.444.422-.788.8-.744.845.042.03.945-.347 2.004-.83 1.06-.498 2.062-.936 2.234-.981.229-.06.415.106.83.694.888 1.253 1.732 1.238 3.078-.06.459-.453.874-.83.903-.83.043 0 .143.27.243.588.172.603.73 1.223 1.117 1.223.587 0 1.332-.634 2.792-2.4 2.306-2.779 2.363-3.02.33-1.374z" fill="currentColor"/></svg>